<svg width="420px" height="460px" viewBox="0 0 420 460" version="1.1" xmlns="http://www.w3.org/2000/svg"
    xmlns:xlink="http://www.w3.org/1999/xlink">
    <g id="Artboard" stroke="#434343" stroke-width="1" fill="none">
        <g id="right-side"
            transform="translate(310.000000, 230.000000) scale(-1, 1) translate(-310.000000, -230.000000) translate(220.000000, 20.000000)">
            <polygon id="perimeter"
                points="20 80 0 300 100 400 140 420 180 380 180 220 160 240 140 220 160 200 140 180 160 160 180 180 180 0 80 20 60 60">
            </polygon>
            <polyline id="Line"
                points="99.9910267 239.961677 80.1330005 219.896715 60.0680387 239.961677 40.0490986 219.942737 60.0228894 199.968946 40.0269715 179.973028 60 160 80 180 99.9910267 160.008973 120.010998 180.028945 100.050005 199.989937 120.13211 220.072042 100 240 179.003914 379.4527 41.00847 340 179.003914 260 100 400">
            </polyline>
            <polyline id="Line-2" points="40.4868713 340 20.7367632 80.6653042 160 160 60 60 180 0"></polyline>
            <polyline id="Line-3" points="80 20.6199485 178 70.0705388 21.0031533 80 60 160"></polyline>
        </g>
        <g id="left-side-copy" transform="translate(20.000000, 20.000000)">
            <polygon id="perimeter"
                points="20 80 0 300 100 400 140 420 180 380 180 220 160 240 140 220 160 200 140 180 160 160 180 180 180 0 80 20 60 60">
            </polygon>
            <polyline id="Line"
                points="99.9910267 239.961677 80.1330005 219.896715 60.0680387 239.961677 40.0490986 219.942737 60.0228894 199.968946 40.0269715 179.973028 60 160 80 180 99.9910267 160.008973 120.010998 180.028945 100.050005 199.989937 120.13211 220.072042 100 240 179.003914 379.4527 41.00847 340 179.003914 260 100 400">
            </polyline>
            <polyline id="Line-2" points="40.4868713 340 20.7367632 80.6653042 160 160 60 60 180 0"></polyline>
            <polyline id="Line-3" points="80 20.6199485 178 70.0705388 21.0031533 80 60 160"></polyline>
        </g>
    </g>
</svg>